<svg width="27" height="21" viewBox="0 0 27 21" fill="none" xmlns="http://www.w3.org/2000/svg">
<g clip-path="url(#clip0_0_356)">
<rect width="26.2933" height="20.1067" rx="10.0533" fill="#121212" fill-opacity="0.7"/>
<path d="M8.51574 13.6402H9.33136V7.10163H8.52027L6.78027 8.35226V9.2132L8.44324 8.00788H8.51574V13.6402ZM13.3143 6.81617H12.5576L10.4914 15.2715H11.2481L13.3143 6.81617ZM16.2732 13.749C17.5828 13.749 18.5434 12.9424 18.5434 11.8504V11.8413C18.5434 10.9124 17.8954 10.3188 16.9439 10.2373V10.2191C17.7595 10.0469 18.3304 9.49413 18.3304 8.68757V8.67851C18.3304 7.68617 17.5103 6.99288 16.2642 6.99288C15.0407 6.99288 14.1979 7.70429 14.0937 8.76913L14.0892 8.81445H14.8731L14.8776 8.76913C14.9456 8.10757 15.4939 7.69976 16.2642 7.69976C17.0617 7.69976 17.5103 8.09398 17.5103 8.7782V8.78726C17.5103 9.43976 16.9665 9.92007 16.1871 9.92007H15.4032V10.6088H16.2234C17.1387 10.6088 17.7142 11.0574 17.7142 11.8594V11.8685C17.7142 12.5618 17.1296 13.0421 16.2732 13.0421C15.4032 13.0421 14.8096 12.598 14.7462 11.9546L14.7417 11.9093H13.9578L13.9623 11.9637C14.0484 12.9968 14.9229 13.749 16.2732 13.749Z" fill="#F9F9F9"/>
</g>
<defs>
<clipPath id="clip0_0_356">
<rect width="26.2933" height="20.1067" fill="white"/>
</clipPath>
</defs>
</svg>
