<svg width="19" height="16" viewBox="0 0 19 16" fill="none" xmlns="http://www.w3.org/2000/svg">
<path d="M1.34668 1.60059C3.38516 -0.437899 6.63626 -0.577435 8.6748 1.46094L9.18164 2.05371L9.74707 1.46094C11.7382 -0.530118 14.8257 -0.437479 16.873 1.46094L17.0176 1.60059C19.0082 3.59179 18.5203 7.57092 16.6221 9.61816L16.3721 9.88184L16.0938 10.166C15.0225 11.2418 13.3805 12.7151 11.168 14.585L9.9043 15.6436C9.46828 16.0065 8.83375 16.0015 8.4043 15.6309L6.84473 14.2764L5.45605 13.0547C3.80549 11.5911 2.56658 10.4455 1.73926 9.61816C-0.299146 7.57971 -0.691514 3.63919 1.34668 1.60059ZM16.084 2.31152C14.4486 0.7952 12.0752 0.773837 10.5859 2.2627L9.13379 3.78223L7.82422 2.25195C6.27242 0.733099 3.77893 0.808095 2.16699 2.41992C0.66995 3.91696 0.880246 7.11853 2.55957 8.79785L2.86035 9.0957C3.70861 9.92369 4.92083 11.0339 6.49121 12.4219L7.60547 13.4004L9.16211 14.752L10.4199 13.6982L11.3223 12.9307C13.0575 11.4437 14.3736 10.2496 15.2617 9.3584L15.5293 9.08496L15.7715 8.8291C17.3801 7.09413 17.6197 3.84288 16.2129 2.43555L16.084 2.31152Z" fill="#262626"/>
</svg>
